solid Corner Brace
   facet normal 0.000000e+000 0.000000e+000 1.000000e+000
      outer loop
         vertex 7.500000e+001 6.092505e+001 4.000000e+000
         vertex 1.445000e+001 6.092505e+001 4.000000e+000
         vertex 1.445000e+001 3.750492e-001 4.000000e+000
      endloop
   endfacet
   facet normal 0.000000e+000 0.000000e+000 1.000000e+000
      outer loop
         vertex 7.500000e+001 6.492505e+001 4.000000e+000
         vertex 7.500000e+001 7.137505e+001 4.000000e+000
         vertex 1.045000e+001 6.492505e+001 4.000000e+000
      endloop
   endfacet
   facet normal 0.000000e+000 0.000000e+000 1.000000e+000
      outer loop
         vertex 1.045000e+001 6.492505e+001 4.000000e+000
         vertex 7.500000e+001 7.137505e+001 4.000000e+000
         vertex 4.000000e+000 7.137505e+001 4.000000e+000
      endloop
   endfacet
   facet normal 0.000000e+000 0.000000e+000 1.000000e+000
      outer loop
         vertex 1.045000e+001 6.492505e+001 4.000000e+000
         vertex 4.000000e+000 7.137505e+001 4.000000e+000
         vertex 1.045000e+001 3.750492e-001 4.000000e+000
      endloop
   endfacet
   facet normal 0.000000e+000 0.000000e+000 1.000000e+000
      outer loop
         vertex 1.045000e+001 3.750492e-001 4.000000e+000
         vertex 4.000000e+000 7.137505e+001 4.000000e+000
         vertex 4.000000e+000 3.750492e-001 4.000000e+000
      endloop
   endfacet
   facet normal -4.411630e-024 1.000000e+000 0.000000e+000
      outer loop
         vertex 7.500000e+001 7.537505e+001 -2.682209e-007
         vertex 6.583105e-007 7.537505e+001 -2.682209e-007
         vertex 7.500000e+001 7.537505e+001 1.300000e+001
      endloop
   endfacet
   facet normal -4.411630e-024 1.000000e+000 0.000000e+000
      outer loop
         vertex 7.500000e+001 7.537505e+001 1.300000e+001
         vertex 6.583105e-007 7.537505e+001 -2.682209e-007
         vertex 6.583105e-007 7.537505e+001 1.300000e+001
      endloop
   endfacet
   facet normal 1.000000e+000 1.850372e-016 0.000000e+000
      outer loop
         vertex 7.500000e+001 7.537505e+001 1.300000e+001
         vertex 7.500000e+001 7.137505e+001 1.300000e+001
         vertex 7.500000e+001 7.537505e+001 -2.682209e-007
      endloop
   endfacet
   facet normal 1.000000e+000 1.850372e-016 0.000000e+000
      outer loop
         vertex 7.500000e+001 7.537505e+001 -2.682209e-007
         vertex 7.500000e+001 7.137505e+001 1.300000e+001
         vertex 7.500000e+001 7.137505e+001 4.000000e+000
      endloop
   endfacet
   facet normal 1.000000e+000 1.850372e-016 0.000000e+000
      outer loop
         vertex 7.500000e+001 7.537505e+001 -2.682209e-007
         vertex 7.500000e+001 7.137505e+001 4.000000e+000
         vertex 7.500000e+001 6.092505e+001 -2.682209e-007
      endloop
   endfacet
   facet normal 1.000000e+000 1.850372e-016 0.000000e+000
      outer loop
         vertex 7.500000e+001 6.092505e+001 -2.682209e-007
         vertex 7.500000e+001 7.137505e+001 4.000000e+000
         vertex 7.500000e+001 6.492505e+001 4.000000e+000
      endloop
   endfacet
   facet normal 1.000000e+000 1.850372e-016 0.000000e+000
      outer loop
         vertex 7.500000e+001 6.092505e+001 -2.682209e-007
         vertex 7.500000e+001 6.492505e+001 4.000000e+000
         vertex 7.500000e+001 6.092505e+001 4.000000e+000
      endloop
   endfacet
   facet normal 1.000000e+000 1.850372e-016 0.000000e+000
      outer loop
         vertex 7.500000e+001 6.092505e+001 4.000000e+000
         vertex 7.500000e+001 6.492505e+001 4.000000e+000
         vertex 7.500000e+001 6.492505e+001 1.300000e+001
      endloop
   endfacet
   facet normal 1.000000e+000 1.850372e-016 0.000000e+000
      outer loop
         vertex 7.500000e+001 6.092505e+001 4.000000e+000
         vertex 7.500000e+001 6.492505e+001 1.300000e+001
         vertex 7.500000e+001 6.092505e+001 1.300000e+001
      endloop
   endfacet
   facet normal -1.570210e-016 -1.000000e+000 0.000000e+000
      outer loop
         vertex 4.000000e+000 7.137505e+001 4.000000e+000
         vertex 7.500000e+001 7.137505e+001 4.000000e+000
         vertex 4.000000e+000 7.137505e+001 1.300000e+001
      endloop
   endfacet
   facet normal -1.570210e-016 -1.000000e+000 0.000000e+000
      outer loop
         vertex 4.000000e+000 7.137505e+001 1.300000e+001
         vertex 7.500000e+001 7.137505e+001 4.000000e+000
         vertex 7.500000e+001 7.137505e+001 1.300000e+001
      endloop
   endfacet
   facet normal 1.000000e+000 1.850372e-016 0.000000e+000
      outer loop
         vertex 4.000000e+000 3.750492e-001 4.000000e+000
         vertex 4.000000e+000 7.137505e+001 4.000000e+000
         vertex 4.000000e+000 3.750492e-001 1.300000e+001
      endloop
   endfacet
   facet normal 1.000000e+000 1.850372e-016 0.000000e+000
      outer loop
         vertex 4.000000e+000 3.750492e-001 1.300000e+001
         vertex 4.000000e+000 7.137505e+001 4.000000e+000
         vertex 4.000000e+000 7.137505e+001 1.300000e+001
      endloop
   endfacet
   facet normal 1.850372e-016 -1.000000e+000 0.000000e+000
      outer loop
         vertex 1.445000e+001 3.750492e-001 1.300000e+001
         vertex 1.045000e+001 3.750492e-001 1.300000e+001
         vertex 1.445000e+001 3.750492e-001 4.000000e+000
      endloop
   endfacet
   facet normal 1.850372e-016 -1.000000e+000 0.000000e+000
      outer loop
         vertex 1.445000e+001 3.750492e-001 4.000000e+000
         vertex 1.045000e+001 3.750492e-001 1.300000e+001
         vertex 1.045000e+001 3.750492e-001 4.000000e+000
      endloop
   endfacet
   facet normal 1.850372e-016 -1.000000e+000 0.000000e+000
      outer loop
         vertex 4.000000e+000 3.750492e-001 1.300000e+001
         vertex 6.583105e-007 3.750492e-001 1.300000e+001
         vertex 4.000000e+000 3.750492e-001 4.000000e+000
      endloop
   endfacet
   facet normal 1.850372e-016 -1.000000e+000 0.000000e+000
      outer loop
         vertex 4.000000e+000 3.750492e-001 4.000000e+000
         vertex 6.583105e-007 3.750492e-001 1.300000e+001
         vertex 6.583105e-007 3.750492e-001 -2.682209e-007
      endloop
   endfacet
   facet normal 1.850372e-016 -1.000000e+000 0.000000e+000
      outer loop
         vertex 4.000000e+000 3.750492e-001 4.000000e+000
         vertex 6.583105e-007 3.750492e-001 -2.682209e-007
         vertex 1.045000e+001 3.750492e-001 4.000000e+000
      endloop
   endfacet
   facet normal 1.850372e-016 -1.000000e+000 0.000000e+000
      outer loop
         vertex 1.045000e+001 3.750492e-001 4.000000e+000
         vertex 6.583105e-007 3.750492e-001 -2.682209e-007
         vertex 1.445000e+001 3.750492e-001 -2.682209e-007
      endloop
   endfacet
   facet normal 1.850372e-016 -1.000000e+000 0.000000e+000
      outer loop
         vertex 1.045000e+001 3.750492e-001 4.000000e+000
         vertex 1.445000e+001 3.750492e-001 -2.682209e-007
         vertex 1.445000e+001 3.750492e-001 4.000000e+000
      endloop
   endfacet
   facet normal -1.000000e+000 -1.850372e-016 0.000000e+000
      outer loop
         vertex 6.583105e-007 7.537505e+001 -2.682209e-007
         vertex 6.583105e-007 3.750492e-001 -2.682209e-007
         vertex 6.583105e-007 7.537505e+001 1.300000e+001
      endloop
   endfacet
   facet normal -1.000000e+000 -1.850372e-016 0.000000e+000
      outer loop
         vertex 6.583105e-007 7.537505e+001 1.300000e+001
         vertex 6.583105e-007 3.750492e-001 -2.682209e-007
         vertex 6.583105e-007 3.750492e-001 1.300000e+001
      endloop
   endfacet
   facet normal 0.000000e+000 0.000000e+000 1.000000e+000
      outer loop
         vertex 7.500000e+001 7.137505e+001 1.300000e+001
         vertex 7.500000e+001 7.537505e+001 1.300000e+001
         vertex 4.000000e+000 7.137505e+001 1.300000e+001
      endloop
   endfacet
   facet normal 0.000000e+000 0.000000e+000 1.000000e+000
      outer loop
         vertex 4.000000e+000 7.137505e+001 1.300000e+001
         vertex 7.500000e+001 7.537505e+001 1.300000e+001
         vertex 6.583105e-007 7.537505e+001 1.300000e+001
      endloop
   endfacet
   facet normal 0.000000e+000 0.000000e+000 1.000000e+000
      outer loop
         vertex 4.000000e+000 7.137505e+001 1.300000e+001
         vertex 6.583105e-007 7.537505e+001 1.300000e+001
         vertex 4.000000e+000 3.750492e-001 1.300000e+001
      endloop
   endfacet
   facet normal 0.000000e+000 0.000000e+000 1.000000e+000
      outer loop
         vertex 4.000000e+000 3.750492e-001 1.300000e+001
         vertex 6.583105e-007 7.537505e+001 1.300000e+001
         vertex 6.583105e-007 3.750492e-001 1.300000e+001
      endloop
   endfacet
   facet normal 7.071068e-001 -7.071068e-001 0.000000e+000
      outer loop
         vertex 1.445000e+001 3.750492e-001 -2.682209e-007
         vertex 7.500000e+001 6.092505e+001 -2.682209e-007
         vertex 1.445000e+001 3.750492e-001 4.000000e+000
      endloop
   endfacet
   facet normal 7.071068e-001 -7.071068e-001 0.000000e+000
      outer loop
         vertex 1.445000e+001 3.750492e-001 4.000000e+000
         vertex 7.500000e+001 6.092505e+001 -2.682209e-007
         vertex 7.500000e+001 6.092505e+001 4.000000e+000
      endloop
   endfacet
   facet normal 0.000000e+000 0.000000e+000 -1.000000e+000
      outer loop
         vertex 7.500000e+001 7.537505e+001 -2.682209e-007
         vertex 7.500000e+001 6.092505e+001 -2.682209e-007
         vertex 6.583105e-007 7.537505e+001 -2.682209e-007
      endloop
   endfacet
   facet normal 0.000000e+000 0.000000e+000 -1.000000e+000
      outer loop
         vertex 6.583105e-007 7.537505e+001 -2.682209e-007
         vertex 7.500000e+001 6.092505e+001 -2.682209e-007
         vertex 1.445000e+001 3.750492e-001 -2.682209e-007
      endloop
   endfacet
   facet normal 0.000000e+000 0.000000e+000 -1.000000e+000
      outer loop
         vertex 6.583105e-007 7.537505e+001 -2.682209e-007
         vertex 1.445000e+001 3.750492e-001 -2.682209e-007
         vertex 6.583105e-007 3.750492e-001 -2.682209e-007
      endloop
   endfacet
   facet normal -6.187592e-017 1.000000e+000 0.000000e+000
      outer loop
         vertex 7.500000e+001 6.492505e+001 4.000000e+000
         vertex 1.045000e+001 6.492505e+001 4.000000e+000
         vertex 7.500000e+001 6.492505e+001 1.300000e+001
      endloop
   endfacet
   facet normal -6.187592e-017 1.000000e+000 0.000000e+000
      outer loop
         vertex 7.500000e+001 6.492505e+001 1.300000e+001
         vertex 1.045000e+001 6.492505e+001 4.000000e+000
         vertex 1.045000e+001 6.492505e+001 1.300000e+001
      endloop
   endfacet
   facet normal -1.587561e-016 -1.000000e+000 0.000000e+000
      outer loop
         vertex 1.445000e+001 6.092505e+001 4.000000e+000
         vertex 7.500000e+001 6.092505e+001 4.000000e+000
         vertex 1.445000e+001 6.092505e+001 1.300000e+001
      endloop
   endfacet
   facet normal -1.587561e-016 -1.000000e+000 0.000000e+000
      outer loop
         vertex 1.445000e+001 6.092505e+001 1.300000e+001
         vertex 7.500000e+001 6.092505e+001 4.000000e+000
         vertex 7.500000e+001 6.092505e+001 1.300000e+001
      endloop
   endfacet
   facet normal 1.000000e+000 1.850372e-016 0.000000e+000
      outer loop
         vertex 1.445000e+001 3.750492e-001 4.000000e+000
         vertex 1.445000e+001 6.092505e+001 4.000000e+000
         vertex 1.445000e+001 3.750492e-001 1.300000e+001
      endloop
   endfacet
   facet normal 1.000000e+000 1.850372e-016 0.000000e+000
      outer loop
         vertex 1.445000e+001 3.750492e-001 1.300000e+001
         vertex 1.445000e+001 6.092505e+001 4.000000e+000
         vertex 1.445000e+001 6.092505e+001 1.300000e+001
      endloop
   endfacet
   facet normal -1.000000e+000 -1.850372e-016 0.000000e+000
      outer loop
         vertex 1.045000e+001 6.492505e+001 4.000000e+000
         vertex 1.045000e+001 3.750492e-001 4.000000e+000
         vertex 1.045000e+001 6.492505e+001 1.300000e+001
      endloop
   endfacet
   facet normal -1.000000e+000 -1.850372e-016 0.000000e+000
      outer loop
         vertex 1.045000e+001 6.492505e+001 1.300000e+001
         vertex 1.045000e+001 3.750492e-001 4.000000e+000
         vertex 1.045000e+001 3.750492e-001 1.300000e+001
      endloop
   endfacet
   facet normal 0.000000e+000 0.000000e+000 1.000000e+000
      outer loop
         vertex 7.500000e+001 6.092505e+001 1.300000e+001
         vertex 7.500000e+001 6.492505e+001 1.300000e+001
         vertex 1.445000e+001 6.092505e+001 1.300000e+001
      endloop
   endfacet
   facet normal 0.000000e+000 0.000000e+000 1.000000e+000
      outer loop
         vertex 1.445000e+001 6.092505e+001 1.300000e+001
         vertex 7.500000e+001 6.492505e+001 1.300000e+001
         vertex 1.045000e+001 6.492505e+001 1.300000e+001
      endloop
   endfacet
   facet normal 0.000000e+000 0.000000e+000 1.000000e+000
      outer loop
         vertex 1.445000e+001 6.092505e+001 1.300000e+001
         vertex 1.045000e+001 6.492505e+001 1.300000e+001
         vertex 1.445000e+001 3.750492e-001 1.300000e+001
      endloop
   endfacet
   facet normal 0.000000e+000 0.000000e+000 1.000000e+000
      outer loop
         vertex 1.445000e+001 3.750492e-001 1.300000e+001
         vertex 1.045000e+001 6.492505e+001 1.300000e+001
         vertex 1.045000e+001 3.750492e-001 1.300000e+001
      endloop
   endfacet
endsolid